<svg width="472" height="809" viewBox="0 0 472 809" fill="none" xmlns="http://www.w3.org/2000/svg">
<path d="M216.5 141C215.4 141.5 212 141.6 209 141.3C203.8 140.8 203.1 141.1 197.5 144.8C194.2 147.1 189.8 150.4 187.9 152.3L184.3 155.8L183.5 168.1C183.1 174.9 182.6 182.6 182.4 185.2C182.2 188.3 181.3 191.1 179.7 193.2C177.1 196.7 173 204.4 173 205.7C173 206.1 174.6 203.6 176.5 200.1C178.4 196.6 180.9 192.9 182 191.8C184 190 184.5 186.1 184 177.4C183.5 167.4 195.7 157.6 210.4 156L217.5 155.3L211.3 155.1C205.9 155 204.1 155.5 197.6 158.9C193.4 161.1 190 162.5 190 162.2C190 160.2 196 153.5 199.8 151.3C205.1 148.2 213 147.4 217.5 149.7C220.7 151.3 229 158.9 229 160.3C229 160.7 227 159.9 224.7 158.5C222.3 157.1 219.7 156 218.9 156.1C218.1 156.1 219 156.8 220.9 157.6C228.1 160.8 234.6 167.4 233.4 170.3C232.3 173.2 228.8 172.8 220 168.9L211 164.9L207.3 166.9C205.2 168 201.6 169.6 199.2 170.6C196.8 171.6 194.7 172.7 194.4 173.1C194.1 173.6 195.5 173.3 197.4 172.5C199.4 171.7 201.6 171 202.5 171C203.4 171 205.4 170.1 206.9 168.9C208.5 167.7 210.6 167 211.6 167.2C213.7 167.6 214.2 170.4 212.3 170.6C209.7 170.9 209.5 171 208.2 173C207 175 207 175 209.3 173.5C211.5 172.1 211.8 172.1 213.5 174C215.3 176 217.6 176.8 216.6 175.1C216.2 174.6 216.4 173.2 216.8 172.1C217.6 170 217.7 170 223.8 173.9L230 178L230.1 183.2C230.2 186.3 230.5 187.3 230.7 185.5C231.4 179.7 231.9 179.8 237.6 186.2C243 192.3 243.2 192.6 242.6 196.9C241.6 203.9 241.2 203.7 234.6 194.9C231.9 191.3 229.8 189.4 229.6 190.2C229.4 190.9 228.9 192.6 228.6 194C228.3 195.4 227.2 197.5 226.1 198.7L224 200.9L217.9 197.8C212.9 195.3 211.1 194.9 207.8 195.4C202 196.3 199.8 197.7 200.2 200.3C200.7 203.8 206.4 206.2 213.2 205.7C218.5 205.4 218.8 205.5 218.1 207.4C217.6 208.6 216.5 213.8 215.5 219C213.2 231.4 213.4 230.9 210.8 231.9C206.2 233.6 202 229.3 197.4 218.3C194.6 211.5 194.4 212 196.6 220.4C199.4 231.3 203.2 234.9 210.5 233.6C214.4 232.8 214.1 233.6 216.9 218.6C218.6 210.2 219.3 208.3 222.1 205.4C223.9 203.5 225.5 202.2 225.7 202.3C225.8 202.5 224.4 210.5 222.6 220.1C220.7 229.7 219.3 237.6 219.4 237.7C220.2 238.6 245 238.1 256.4 237C268.5 235.8 271.4 235.8 279.3 237.1C287.6 238.5 289.4 238.5 302.4 236.8C325.3 233.8 331.7 231.6 334.8 225.9C335.5 224.6 337.3 220.8 338.7 217.5C343.1 207.6 342.6 214 337.7 230.6L333.2 245.5L328.8 246.1C326.4 246.5 320.1 248.2 314.9 249.8C300.7 254.4 281.7 259 277.1 259C270.5 259 268.5 254.8 270.9 246.2C271.5 244.4 271.5 243 271 243.2C270.6 243.4 267.4 246.1 264 249.3C257.3 255.6 255.6 258.8 254.5 266.7C253.8 271.8 252.6 273.1 250.4 271.1C248.7 269.4 229.8 263.4 214.5 259.5L199.5 255.8L191.2 247.6C186.6 243.2 182.4 238.7 181.9 237.7C181.1 236.3 182 235 186.6 230.7L192.2 225.5L192.6 212.5C192.9 205.3 193.5 199.4 194 199.2C195.5 198.7 193.9 192.7 191.7 190.3C190.2 188.6 189.7 186.7 189.8 182.5C189.8 177 189.1 175.9 187.3 178.2C185.8 180.1 185.7 192.1 187 197.2C188.5 202.6 188.7 203.7 189.5 213.2C190.1 220.2 190 220.9 188.1 221.9C187 222.5 185.7 223 185.2 223C183.7 223 176.7 215.4 174.2 210.9C172.2 207.3 171.9 207 172.5 209.4C172.8 211 175.8 216.3 179 221.1L184.9 229.9L181.4 232.9C179.4 234.5 175 236.8 171.6 238C168.3 239.2 162.3 241.8 158.3 243.7C149.7 247.9 148.5 249.8 144.1 267C140.2 282.5 135.8 303.1 136.3 303.6C136.5 303.9 137.9 298.7 139.4 292.3C140.9 285.8 143.3 275.5 144.7 269.5C147.9 255.6 149.9 250.9 154.2 247.7C157.4 245.2 171.9 238.5 172.5 239.2C173.1 240 179 264.1 179.9 269.9C181 276.9 181.7 275.5 169.6 292.9C165.2 299.2 165.1 299.3 164.4 296.5C164 295 164.4 287.4 165.3 279.7C166.2 271.9 166.7 265.3 166.4 265.1C165.3 264 159.5 279.4 156.1 292.9C153 304.9 150.8 310.9 145.6 321.3C137.8 337.1 135.1 345 134.4 353.9C133.7 362.1 130.6 371.9 122.3 392C118.2 401.7 115.7 409.2 115.6 412C115.1 421.3 113 426.2 107.9 430.5C105.3 432.7 102.3 436.2 101.3 438.2C100.3 440.3 99.2 442 98.8 442C97.4 442 92 429.5 92 426.2C92 423.5 92.8 421.9 95.3 419.5C97 417.8 100.4 413.7 102.6 410.4C106.6 404.8 107 403.6 110 387.2C111.8 377.7 113 369.7 112.7 369.4C112.5 369.1 111.9 370.6 111.6 372.7C106.8 400.1 104.8 408 103 408C102.6 408 101.8 406.3 101.2 404.1C97.3 391.1 88 392.7 88 406.4C88 409.8 88.5 414.1 89.1 416C89.7 417.9 90.1 421.7 90.1 424.3C89.9 430.2 92.3 435.7 99 445.7L104.1 453.1L100.3 454.7C98.2 455.5 93.1 456.7 89 457.2C82.8 458.1 81.1 458.7 79.3 460.9C75.3 465.5 75.7 465.7 87 463.1C89.5 462.5 94.5 462.1 98.2 462H104.8L108.5 477.7C110.6 486.4 114 500.7 116.1 509.5C139.9 609.4 142.2 620.3 141.7 627.5C140.7 640.4 132.3 660.6 123.5 671.3C119 676.9 118.9 677.2 120.4 679.5C121.3 680.8 124.2 682.7 127 683.7C132 685.5 132 685.5 132 689.8V694.1L122.1 693.4L112.1 692.7L111.8 705.1C111.6 711.9 111.6 717.7 111.8 718C112.1 718.5 129.1 718.9 218 720.9C244.7 721.5 271.5 722.2 277.6 722.5L288.7 723.1L289.4 710.9C289.8 704.2 289.8 698.5 289.6 698.2C289.3 698 284.8 697.5 279.5 697.2L270 696.7V692.5V688.2L259.7 687.5L249.4 686.8L248.2 679.2C247.5 675 245.8 665.3 244.3 657.7L241.6 644L243.4 631.2C246.6 609.2 248.7 597.8 249.8 597.1C251.3 596.2 255.1 584 259 568C262.5 553.4 263.5 550.9 268.6 543.8C270.4 541.3 274.1 535.6 276.8 531.1L281.8 523.1L277 488.8C266.9 417.4 257 366 253 363.5C251.1 362.3 248 355.1 248 352C248 348.5 249 343 256.5 304.6C262.4 274.8 263 273.4 272.1 267.8C276.4 265.1 279.5 264.2 298.5 260C303.5 258.9 312.9 256.5 319.5 254.6C326.1 252.7 331.5 251.2 331.6 251.3C332.2 252.2 322.1 282.1 320.8 283.4C315.1 289 332 295.8 348.9 294.8C357.3 294.3 365.8 291.1 369.6 286.9C371.4 284.9 371.4 284.8 369.3 283.2C367.1 281.5 363.4 272.3 355.5 248.8L351.6 237.2L353.2 232.3C354.1 229.7 356.6 222.6 358.8 216.6L362.7 205.8L375.5 200.9C382.5 198.2 388.6 196 389 196C389.5 196 386 207.4 381.4 221.2C376.8 235.1 371.8 250.3 370.3 255C368.9 259.7 367.3 263.8 366.8 264.1C365 265.3 366.5 268.5 369.4 269.9C379.7 274.8 419 272.5 419 267C419 266.4 417.7 265.2 416.2 264.3C413.6 262.8 412.5 260 404.6 235.7C399.8 220.9 395.7 209 395.5 209.2C395.2 209.4 397.7 217.9 400.9 228.1C408.6 252.1 411.2 261.1 410.8 261.5C410.6 261.7 408.7 261.5 406.5 261C404.3 260.5 399.5 260 395.8 260H389V256.2C389 254.2 389.5 239.7 390.1 224C390.9 204 391.6 195.1 392.5 194C393.2 193.2 394 191.2 394.4 189.7C395 187.3 394.8 186.9 393.3 187.4C388.6 188.8 368.5 192.8 368 192.4C367.5 191.8 372.8 176.3 374.6 173.3C375.3 172.2 377.5 170.7 379.4 170C382.1 169.1 383.2 167.9 384.9 164C386.1 161.3 387 158.5 387 157.6C387 155.6 379.4 149.3 375.3 147.9C371.1 146.6 368.3 148.1 364.3 154.1C362.2 157.2 361.6 159.3 361.7 163.3C361.8 167.2 361.1 169.4 358.9 173.1C355.7 178.3 346.7 197 347.2 197.5C347.4 197.7 351.1 190.9 355.5 182.4C362.7 168.3 365.4 164 366.4 165.1C366.8 165.7 364.2 194.1 363.6 194.7C363.4 194.9 358.5 197.6 352.8 200.5C346.2 203.9 342.4 206.5 342.2 207.7C342 208.7 338.9 213.9 335.4 219.2L328.9 229L322.2 231C305.7 235.9 295.2 236.8 272.5 235.5L259.5 234.8L259.7 230.6L259.9 226.5L259.1 230.3C257.9 236 257.3 236.3 248.6 234.4C241 232.7 240.8 232.6 233.9 225.2L227 217.8V209.4C227 204.8 227.2 201 227.4 201C227.7 201 228.9 203.7 230.1 207C231.9 211.9 233.2 213.7 237.2 216.6C239.9 218.6 242.3 220.1 242.5 219.9C242.7 219.6 242 216.4 241 212.7L239.1 205.9L242.3 208.2C251.2 214.3 257.4 219.8 259 223C260.2 225.2 260.9 225.9 261 224.7C261.1 220.6 254.4 212.6 246.7 207.5C244.2 205.9 244 205.2 244 199.3C244 192.3 243.3 190.5 238.3 184.4L234.9 180.2L235.9 169.9C236.7 161.7 236.6 159 235.5 156.3C233.3 151.1 228.9 145.9 224.1 142.8C219.2 139.7 219.4 139.8 216.5 141ZM223.9 145.5C229.4 148.9 232.8 153.8 234 160C235.2 166.4 235.2 167.3 234.1 166.6C233.7 166.3 232.7 164.1 232 161.6C229 150.8 215.9 144.1 204.3 147.5C196.9 149.7 187 159 187 163.7C187 165.5 186.6 167.2 186 167.5C185.4 167.9 185 165.9 185 162.2C185 155.4 186.1 154 196.9 147.1C203.1 143.1 203.6 143 211.7 143C218.8 143 220.6 143.4 223.9 145.5ZM373.5 154.3C373.5 157.4 373.8 159.3 374.2 158.7C374.6 158 375 155.8 375 153.7C375 151.1 375.4 150 376.5 150C377.4 150 378 150.9 378 152.2C378 153.9 378.3 154.1 378.9 153.1C379.9 151.5 382 152.5 382 154.6C382 155.4 382.5 155.8 383 155.5C383.6 155.2 384.3 155.6 384.6 156.4C385.3 158.1 383.3 164.7 381.9 165.5C381.4 165.8 379.3 164.9 377.3 163.5C373.5 161 367.7 160.1 366.5 162C365.1 164.3 364.4 162.7 365 158.5C365.7 153.8 370.3 147.6 372.5 148.3C373 148.5 373.5 151.2 373.5 154.3ZM389.1 219.4C388.5 228.8 387.7 241.7 387.4 248.1L386.7 259.7L377.8 261.2C372 262.1 369.1 262.2 369.3 261.5C369.6 261 374.2 246.9 379.6 230.2C385 213.5 389.6 200.4 389.8 201C390.1 201.7 389.7 209.9 389.1 219.4ZM360 207.4C360 207.5 357.8 213.5 355.1 220.6C352.3 227.9 349.9 232.8 349.6 232C349.3 231.2 347.7 226.6 346.1 221.8L343.2 213.1L350.8 210.1C358.3 207.1 360 206.6 360 207.4ZM346.5 227.1C348.9 234.2 349.1 235.7 348.1 239C347.1 242.4 346.5 242.9 342.9 243.5C340.7 243.9 338.7 244 338.5 243.8C337.9 243.2 342.7 219 343.4 219C343.7 219 345.1 222.7 346.5 227.1ZM182 245.1C192.4 258.3 192 258.1 215 264.4C226.3 267.4 239.1 271.5 243.5 273.4L251.4 276.9L251.2 281.2C251.1 283.6 250.7 288.1 250.4 291.2C250.1 294.4 250 297 250.3 297C250.6 297 251.8 295.4 253 293.4C254.2 291.5 255.4 290.1 255.7 290.3C256.1 290.7 250.5 316.7 249.3 320C249 320.8 247.5 315.3 245.9 307.8C242.7 291.6 242.2 290.1 242.1 295.7C242 298.1 241.7 300 241.3 299.9C240.8 299.9 239.3 297.3 237.8 294.2C233.1 284.5 231.9 283.5 225.7 283.5C220.4 283.6 214 285.5 214 287.1C214 288.1 217.7 292.5 230 305.9L239.5 316.4L227.5 310C220.9 306.5 212.6 301.9 209 299.8L202.5 295.9L208.5 301.7C211.8 304.9 217 309.7 220 312.4C223 315.1 224.8 316.9 224 316.5C221.2 314.9 202.5 302.6 193.5 296.3L184.5 289.9L196.9 302C210.4 315.2 225.8 327.4 233.8 331.1C239.7 333.9 240.3 335 235.8 335C234 335.1 227.8 335.5 222.1 336C215.5 336.6 211.1 336.6 210 336C207.7 334.7 200.8 324.4 193.2 310.7C189.9 304.7 187 299.7 186.8 299.4C186.1 298.8 188 315.4 189.5 323.4C190.6 329.5 191.6 332 193.7 334.2C197.9 338.6 216.6 347.6 225.9 349.7C230.4 350.7 234 351.7 234 352C234 352.4 232.4 355.2 230.5 358.4C228.6 361.6 227 364.4 227 364.6C227 364.7 229.6 363.8 232.8 362.6C242.6 358.6 242.3 358.6 247.7 362.9C250.5 365.1 253 367.9 253.2 369.2C253.5 370.5 255.9 379.8 258.5 390L263.2 408.5L262.6 456C262.2 482.1 261.7 507.8 261.4 513.1L260.7 522.6L253.6 524.9C249.7 526.1 244.8 528.3 242.7 529.6C237.6 532.9 224.6 538.1 224.2 537C224 536.5 225.4 530.8 227.3 524.3C234.3 500.7 241.1 476.1 246 456.6C250.9 436.9 252.3 429.3 249.3 438C233.6 483.1 210.4 537.9 202.6 548.4C201.3 550.1 196.8 558.5 192.7 567C159.2 636.3 160 634.8 160 629.4C160 621.8 162.8 591.8 164 586.4C164.8 582.9 169.9 574.3 182.9 554.5C205.3 520.4 220 496.6 220 494.4C220 494 215.5 500.1 210 508.1C192.7 532.8 188.9 538.2 181.3 548C170.5 562.1 164.7 569 164.3 568.6C163.9 568.2 169 553.5 178.5 528C181.1 521.1 184.5 511.7 186.1 507.1C187.7 502.4 193 491.7 198.3 482.6C211.1 460.7 223.1 439.6 233.2 421C250.2 390 252.9 383 240.9 401C217.8 435.8 189.9 472.9 179.5 483C172.5 489.7 171.8 490.9 192.1 460.4C216.1 424.2 239.4 387.6 236.8 390C236.5 390.3 225.8 404 213 420.4C177.2 466.5 154.6 493.9 153.4 492.7C152.6 492 152.8 437.8 153.5 429.5C154.4 420 156.2 406.6 156.7 405.7C157 405.3 159 407.2 161.2 409.9C166.5 416.4 171.4 420.2 177.3 422.5C181.9 424.2 182.1 424.2 187.5 422.2C193.4 419.9 199.2 416.2 205 411C207.3 409 207.7 408.4 206 409.4C201.8 411.9 188.4 416 184.5 416C182.5 416 179.6 415.4 178.1 414.6C173.8 412.3 164.8 402 161.6 395.6L158.8 389.8L161.4 383.7C162.8 380.3 164.4 376.2 165 374.6L166 371.8L171.7 379.6C180.7 392.3 192 405 194.3 405C194.8 405 193.9 403.5 192.3 401.7C181.3 389.2 170.1 368.8 171.2 363.3C171.4 362.2 174.6 366.6 179.5 374.7C187.7 388.4 196 399.2 194 393.7C188.7 378.6 174.3 331.8 169.5 313.7C167.2 305.2 167.6 302.2 170 309.8C173.9 321.9 185.4 339.3 192.3 343.6C194.8 345.1 194.3 343.7 187.1 329.9C176.5 309.4 171.8 298.5 171.8 294.3C171.8 291.8 172.7 289.9 174.8 287.7C178.2 284.1 181.4 278 182.4 273.5C183.1 270.4 181.1 261.5 176.4 246.7C173.6 237.6 173.6 238 175.3 238.1C175.9 238.1 179 241.2 182 245.1ZM358.5 260.5C362.2 270.9 365.4 279.9 365.7 280.4C366.1 280.9 364.6 281 362.4 280.7C360.3 280.3 352.4 280 344.9 279.9C332.7 279.8 331.3 279.6 331.6 278.2C331.8 277.2 333.1 270.4 334.5 263.1C335.9 255.7 337.3 249.3 337.7 249C338.2 248.6 340.7 247.5 343.3 246.6C346.4 245.4 348.5 243.9 349.2 242.4C349.9 241 350.7 240.3 351 240.7C351.4 241.2 354.8 250 358.5 260.5ZM405.3 264.2C409.8 265.3 409.7 266.8 404.9 269.3C400.1 271.9 383.6 271.3 376.8 268.2C374.1 267.1 372 265.7 372 265.1C372 264.2 373.5 263.8 381 262.7C384.9 262.1 401.1 263.1 405.3 264.2ZM355.3 282C365.9 283.6 367 283.9 367 285.5C367 287.6 360.6 290.5 352.8 292C346.4 293.3 346.1 293.3 340.6 290.6C335.5 288.1 331 284 331 281.9C331 280.7 346.6 280.8 355.3 282ZM167.4 320.8C168.8 329.3 170 338.7 170 341.8C170 347.8 167.5 358.1 161.5 376.5C154 399.8 145.5 470.8 144.5 518.5C144.3 532.2 143.7 549.1 143.4 556L142.7 568.5L140.4 558C139.2 552.2 134.5 530.6 130.1 510C118 454.3 118.5 457.3 120 455.5C120.9 454.4 123.2 454 128.5 454C138.2 454 142 453.2 142 451.1C142 447.1 137.7 445.8 133.5 448.6C131.6 449.8 129.2 450.1 123.1 449.9C118.7 449.7 114.9 449.2 114.5 448.8C114.1 448.4 114.3 446 114.8 443.3C115.4 440.7 116.4 432 117.1 424L118.3 409.5L125.8 394C139.7 365.1 140.1 364.1 140.7 356C141.3 349.2 142.1 346.9 150 330.3C157.3 315.3 163.7 304.3 164.6 305.3C164.7 305.4 166 312.4 167.4 320.8ZM116.6 460.8C124.7 488.5 160 654.2 160 664.2V670.3L156 664.7C152.2 659.5 151.6 657.4 147.4 639.3C145 628.4 141.6 613.6 140 606.5C138.4 599.3 131 566.7 123.5 534C116.1 501.3 109.3 471.7 108.5 468.3C107 462.2 106.6 458 107.4 458C107.6 458 108.5 457.7 109.3 457.4C110.4 457 111.1 458.2 111.9 462.2C115.4 478 117.4 485.9 117.8 485.6C118 485.4 117 480.1 115.7 473.8C111.4 454.6 111.6 455.8 113.6 456.2C114.8 456.4 115.9 458.1 116.6 460.8ZM228.5 570C230.8 581.5 235.1 590.3 240 593.6C244.6 596.6 245.4 599.8 244.5 610.3C243.8 617.7 240.2 640.9 239.5 642C239.3 642.3 240.7 652.4 242.6 664.5C244.4 676.5 245.8 686.6 245.5 686.8C245.2 687.2 229.2 685 228.3 684.5C228.2 684.5 228.7 682.2 229.5 679.5C231.8 672.1 231.5 663.5 228.8 659.1C226.5 655.5 226.5 655.3 226.2 608C226.1 581.9 226.1 560.8 226.3 561C226.6 561.3 227.5 565.3 228.5 570ZM208.7 583.7C207.9 598.7 205.8 614.2 201.9 634.4C200.3 643.3 198.6 652 198.3 653.8C198 655.6 197.3 657.3 196.8 657.6C196.2 658 196 657.5 196.4 656.4C196.7 655.3 198.3 643.9 200 631C201.7 618.1 203.4 605.1 203.9 602.2C204.3 599.3 204.5 597.2 204.3 597.4C204 597.6 201 603.4 197.6 610.2C177.6 649.6 173.7 657.1 173.4 656.7C173.2 656.5 174.2 653.7 175.6 650.4C177 647.2 182.2 634.8 187.2 623C205 580 208.5 572 208.9 572C209.1 572 209 577.3 208.7 583.7ZM223.7 641.5C224 645.6 223.3 650 220.9 658.6C218.3 668.1 217.9 670.5 218.9 672.6C220.3 675.8 220.3 680.2 218.8 683.5C217.8 685.8 217.2 686 211.4 686H205L208.4 680.7C212.2 674.8 218.2 656.9 220.8 643.8C221.7 639.1 222.7 635.3 222.9 635.5C223.1 635.7 223.4 638.4 223.7 641.5Z" fill="white"/>
</svg>
